/* XPM */
static char *MS_DOS___Wolfenstein_3D___Walls1737059292[] = {
/* columns rows colors chars-per-pixel */
"61 61 38 1 ",
"  c #010101",
". c #0C0C0C",
"X c #141414",
"o c #1D1D1D",
"O c #241D1D",
"+ c #1F2121",
"@ c #232323",
"# c #2B2626",
"$ c #2B2B2B",
"% c #322D2D",
"& c #343434",
"* c #3B3B3B",
"= c #413E3E",
"- c #007C7C",
"; c #0B7F7F",
": c #444444",
"> c #4B4B4B",
", c #514F4F",
"< c #535353",
"1 c #5B5B5B",
"2 c #646464",
"3 c #6C6C6C",
"4 c #747474",
"5 c #7B7B7B",
"6 c #848484",
"7 c #8C8C8C",
"8 c #939393",
"9 c #9B9B9B",
"0 c #A3A3A3",
"q c #ABABAB",
"w c #B3B3B3",
"e c #BBBBBB",
"r c #C3C3C3",
"t c #CBCBCB",
"y c #D3D3D3",
"u c #DBDBDB",
"i c #E2E2E2",
"p c #EBEBEB",
/* pixels */
"---------;-------------;--;;-------------;-----;-------------",
"%%%$&$%&$@:>,>,,>>>>,,>>,=O%==>>><,,:>==%#%##@#####$&&%&%$&%&",
"<<<<<<<<2Xqpuuuuiuuuiuiuir 29eryytttreq7<+>>>>>:>>><<<<<<<<<<",
"<<<111111Xquttrtyttytetye3 1wr8886676701$O*509000854<*>>:>>>>",
"00009884&#0irqrweewreewr5< 2rt78909q807<*o*9puuuuurrqq0000000",
"tyttq073*@qiq00q80q908q03>X>0q789000863<&o*9utwwetyyyyytttttt",
"0909q841: ep09q0q00907004>#@498q86q705>>*o&9u0988789847787058",
"e090974<& epq899098788994>#=,58000q8q6&&*o*9u0997996907900790",
"qw8q86>:$ qu0889q08588981:o::179743363**&@&9ie996706608997888",
"79076<>*++6yr9q89887879822 $>:>: @&&o&&&o**5ut69677888097qq87",
"5555<>:&+&3ye9086879790822X#::$**&$X .  .>:1re799089657568475",
"2211>%$$+*,re887549079592<##::&+$::355661:>2e757564322<>>><><",
"&&$%&+$+#>+eu876888895795<$@:>56qruyttq63$<19422<>>**:::****&",
"@@@++%$$$<&8u088589788784>&$o3qtiyerqe83*o::1>>>:*:*&$#@++o++",
"********&>>2re8086765805<,&$X4rye9566772&+&#@&&@$$$&&&&&&&&&&",
">*##$$$+$>,,w08080807099>3&#$3uy86080701&+*::X&:@>***::**::**",
"766666684 >&0r077996787821>o+3ut30q70781*+*30ue$>257666666766",
"tyytytwq1X>>4r998586707462*+X4te097q8q71&X:qur9 18tuuuuuuyuuu",
"q09q8w941X:>18080q7048314<*oo4rr9534421<* <ur04 2eureeeeeeeee",
"070707632o*<*6053441<313<:## 5q465>&*&&** 4iq75 2ry0909079788",
"q9808q92>@*<>11<<<>::*$@+@o+ 36>$*+XoXo@+ 5u005 2rt7878896477",
"07070662>@&<>o  X  XXoo++XX.Xo:>$$#+#&&$$$9u004 1qq9009088799",
"80457991>##:3321<::*&o$>>><11599qwq9961$&3ty073 1qe8788795477",
"67668q5<:&.4tuuureq72*>39eettuiuuuuuy02@&6ue001o<0e0809087579",
"88q0885<:* wy9788080&<>8uputwwwweewqe5<+&8uq871#>9079676607q7",
"8957951>** wt890q999#>>qp0797989999773:+&8p099$&:141,>>111356",
"1<1<,:&&&* er9q8q701+:>qi8q978q867q703:@$8p9q6**>X+&:::*:*:>>",
">&*#+o ..* ee970q942+:>qi6080866508871:@&9p7q5:&<&*&@@+XXX$&*",
"$*$+><,>12 wy6708953$#>qp7895566976902>@$8p0q7*&<   *>>>>>&@+",
"148werwew6 qt7859962&o>qi0788884965902*+&8i600&&17w93>$XX.@:>",
"20yiytrre8 et8055q83:o>8yw888773878961&@&8u888* 7yrrrewqqw5:<",
"3teeq80806 rt7q808q4:o*5yy096887968051*$&8u805> 0t>9rretrr9*<",
"3uq9899998 rt68q0983>@$1ri9q987873895<&$*8y9q5> 9y897887853*>",
"4u08080980 et8006902<o%<wpq0996768904>$$:8y089* 9y890990804&:",
"4uq088q995 qy7969003<o#:8uw9678788794*+#:8t803> 7r9099779q2&>",
"3uq8098998 9i0609972<o#:3ty8899899851*+&:6e53$:X5e90q8098q2&*",
"3uw0080905 6i0896704<o@*1qr9754422<:**+&>1<:#*>$<6124233131*&",
"4uq8q99987 3yw59q774<o+*<2972<:$XXXo+++&>,*:<<<<:XXoX@Xo@o#@*",
"3uq6809805#:tr7q9703<o+&>:*&$$++$$$$$$$&:<<>>>>>:::*$&&$$&#&&",
"3uwq070907& te896082<oo&>:*%&&%*:::::::::,<5444445454454555:<",
"3uq6898053: tt775704<@@#:35555555555557789qweerrrreereerer7*<",
"3ywq09098@* tt608783<#+o*8rrrrrrrrrrrrrryuippppppppppiuyy02$:",
"3yq908q04*& te968703<*+X&8rupppppiipuiipppiuytwweeqqrweee6<$:",
"2rq080675&& er990872<&+X&7ttqeeweqwe0eeeqq0886899977980805<&&",
"<e79q5332*& wq508084<*++X5yy96777708008790008688008999qq84<&*",
"<q0094><*X*@8w970864<&o@ 3tuq989898709790q7878866886979806<$&",
">221*<<1:o*&67975632<&+@ 1rir99787587978809588089955678774<@&",
">*&#&>><*#::11><<<1>>*o$ >euw790906985498799086975786995441@&",
"<<>*$ +X#&>:%$$$$$$$$&++.:0e995878978068786957788890768665<@&",
":143432:$+**&%$$%$$$$+$$X>53><<<<:6789875676668889588667841@*",
">9eytyrq5441>*$X.X.+$$$$&>>:*&#$+$o<1243333333232242333332:@&",
">qyrreuuuye866545451<1>>:><::#%*>*&&**&*********&*&*&&*&&*+&:",
">qu909rewtuyyyyyyyyttteeq9666661>>***:*&%%&+$#@$+@@o+++@o@&::",
">qu09067999eeewrereereeertyyytq1*<>&  X*:>*&%&*::*:::*:**:::<",
">qy0007097597596370465899qqeeq5>$<>4er8<  $>,>X       .o%<<<<",
"<qr09q67099q08706778808q807qq7<:+,Xrteuttr9<,1qtrttttrwq73*><",
",q84342354454424343445344445431:+: te0ertre1>8uerwwqwww09y9$<",
">82&*&>*&**&**:&*****&********:*$&Xqewe9397<1e08970079898w5X<",
"::$o+++++++++++++++++++++++++++++@:><<23233<4u890q09000q871o<",
"<:&&&$###$$$$$#$#$$$$$#$#$#$$$$$$$&><&$@#@@#>3111111112111<@<",
"<<<<>:>:>>>*&&*&&*&*&*&*&**&*&*&**&><<<*&&&&*<>.@XoooooXoo@o<"
};
